# xmcd
#
# Track frame offsets:
#	150
#	24698
#	44905
#	68658
#	87692
#	115402
#	137685
#	159745
#	183213
#	203908
#
# Disc length: 2987 seconds
#
# Revision: 2
# Processed by: cddbd v1.5.2PL0 Copyright (c) Steve Scherf et al.
# Submitted via: EZCDAudioConverter 8.0.2.1
#
DISCID=940ba90a
DTITLE=Various Artist - Touch Me In The Morning
DYEAR=1989
DGENRE=blues
TTITLE0=Thụy Du - Let me get to know you (Xin được hiểu lòng anh)
TTITLE1=Thái Thảo - Midnight blue (Giữa đêm xanh)
TTITLE2=Minh Xuân - Touch me in the morning (Yêu nhau phút này)
TTITLE3=Tuấn Dũng - How can I tell her (Biết nói sao đây)
TTITLE4=Ngọc Tuyết - When I need you (Khi tôi cần anh)
TTITLE5=Thái Hiền - We're all alone (Chỉ mình đôi ta)
TTITLE6=Trung Hành - I go crazy (Anh cứ vẫn yêu)
TTITLE7=Minh Xuân - You needed me (Đã có anh)
TTITLE8=Công Thành - If you go away (Nếu em đã ra đi)
TTITLE9=Tuyết Nhung - Do that to me one more time (Yêu em nữa đi anh)
EXTD=
EXTT0=
EXTT1=
EXTT2=
EXTT3=
EXTT4=
EXTT5=
EXTT6=
EXTT7=
EXTT8=
EXTT9=
PLAYORDER=
